<svg width="800" height="800" viewBox="0 0 32 32" xml:space="preserve" xmlns="http://www.w3.org/2000/svg"><g fill="none" stroke-linecap="round" stroke-linejoin="round" stroke-miterlimit="10"><path stroke="#ffeba7" d="m1.5 20.71 3.795-1.236"/><path stroke="#ffeba7" d="m1.5 8.728 5.795-1.954M4.529 24.652l5.766-1.878m4.103-4.085-1.339 3.767a.5.5 0 0 0 .625.643l1.258-.408a.498.498 0 0 0 .249-.181l5.854-8.01m4.552-5.786-5.506 1.789-7.974-5.61a.477.477 0 0 0-.442-.066l-1.531.497a.5.5 0 0 0-.265.738l4.03 6.45-6.115 1.986a1.976 1.976 0 0 1-1.854-.333l-1.783-1.408a.497.497 0 0 0-.467-.079l-.97.314a.497.497 0 0 0-.24.783l1.948 2.532a5.015 5.015 0 0 0 5.505 1.702l19.668-6.391a1.297 1.297 0 0 0 .834-1.638 1.325 1.325 0 0 0-.888-.857l-1.632-.458a3.997 3.997 0 0 0-2.318.049z"/></g></svg>